<?xml version="1.0" standalone="no"?><!DOCTYPE svg PUBLIC "-//W3C//DTD SVG 1.1//EN" "http://www.w3.org/Graphics/SVG/1.1/DTD/svg11.dtd"><svg version="1.1" xmlns="http://www.w3.org/2000/svg" xmlns:xlink="http://www.w3.org/1999/xlink"><defs xmlns="http://www.w3.org/1999/xhtml"><style type="text/css"><![CDATA[]]></style></defs>
    <g transform="rotate(0 50 50)">
      <rect x="47" y="20" rx="0" ry="0" width="6" height="12" fill="#000000">
        <animate attributeName="opacity" values="1;0" keyTimes="0;1" dur="1s" begin="-0.9166666666666666s" repeatCount="indefinite"/>
      </rect>
    </g>
    <g transform="rotate(30 50 50)">
      <rect x="47" y="20" rx="0" ry="0" width="6" height="12" fill="#cc0000">
        <animate attributeName="opacity" values="1;0" keyTimes="0;1" dur="1s" begin="-0.8333333333333334s" repeatCount="indefinite"/>
      </rect>
    </g>
    <g transform="rotate(60 50 50)">
      <rect x="47" y="20" rx="0" ry="0" width="6" height="12" fill="#000000">
        <animate attributeName="opacity" values="1;0" keyTimes="0;1" dur="1s" begin="-0.75s" repeatCount="indefinite">
        </animate>
      </rect>
    </g>
    <g transform="rotate(90 50 50)">
      <rect x="47" y="20" rx="0" ry="0" width="6" height="12" fill="#cc0000">
        <animate attributeName="opacity" values="1;0" keyTimes="0;1" dur="1s" begin="-0.6666666666666666s" repeatCount="indefinite"/>
      </rect>
    </g>
    <g transform="rotate(120 50 50)">
      <rect x="47" y="20" rx="0" ry="0" width="6" height="12" fill="#000000">
        <animate attributeName="opacity" values="1;0" keyTimes="0;1" dur="1s" begin="-0.5833333333333334s" repeatCount="indefinite"/>
      </rect>
    </g>
    <g transform="rotate(150 50 50)">
      <rect x="47" y="20" rx="0" ry="0" width="6" height="12" fill="#cc0000">
        <animate attributeName="opacity" values="1;0" keyTimes="0;1" dur="1s" begin="-0.5s" repeatCount="indefinite">
        </animate>
      </rect>
    </g>
    <g transform="rotate(180 50 50)">
      <rect x="47" y="20" rx="0" ry="0" width="6" height="12" fill="#000000">
        <animate attributeName="opacity" values="1;0" keyTimes="0;1" dur="1s" begin="-0.4166666666666667s" repeatCount="indefinite"/>
      </rect>
    </g>
    <g transform="rotate(210 50 50)">
      <rect x="47" y="20" rx="0" ry="0" width="6" height="12" fill="#cc0000">
        <animate attributeName="opacity" values="1;0" keyTimes="0;1" dur="1s" begin="-0.3333333333333333s" repeatCount="indefinite"/>
      </rect>
    </g>
    <g transform="rotate(240 50 50)">
      <rect x="47" y="20" rx="0" ry="0" width="6" height="12" fill="#000000">
        <animate attributeName="opacity" values="1;0" keyTimes="0;1" dur="1s" begin="-0.25s" repeatCount="indefinite">
        </animate>
      </rect>
    </g>
    <g transform="rotate(270 50 50)">
      <rect x="47" y="20" rx="0" ry="0" width="6" height="12" fill="#cc0000">
        <animate attributeName="opacity" values="1;0" keyTimes="0;1" dur="1s" begin="-0.16666666666666666s" repeatCount="indefinite"/>
      </rect>
    </g>
    <g transform="rotate(300 50 50)">
      <rect x="47" y="20" rx="0" ry="0" width="6" height="12" fill="#000000">
        <animate attributeName="opacity" values="1;0" keyTimes="0;1" dur="1s" begin="-0.08333333333333333s" repeatCount="indefinite"/>
      </rect>
    </g>
    <g transform="rotate(330 50 50)">
      <rect x="47" y="20" rx="0" ry="0" width="6" height="12" fill="#cc0000">
        <animate attributeName="opacity" values="1;0" keyTimes="0;1" dur="1s" begin="0s" repeatCount="indefinite">
        </animate>
      </rect>
    </g>
  </svg>